#!OML:ASF F:\VICON\USERDATA\INSTALL\rory3\rory3.ASF
:FULLY-SPECIFIED
:DEGREES
875
root -0.56403 23.0262 3.28242 -0.417626 -3.57907 -358.122
lowerback 6.52308 0.5731 3.64032
upperback 3.17205 1.01047 4.618
thorax -0.402451 0.50632 2.65203
lowerneck -14.0836 1.37688 -9.23903
upperneck 41.3079 6.03014 -1.63638
head 17.4655 0.813858 2.00642
rclavicle -1.70955e-014 -2.38542e-014
rhumerus -25.5989 -4.99759 -75.8087
rradius 41.6273
rwrist 16.2639
rhand -20.0951 2.04125
rfingers 7.12502
rthumb 6.24796 -27.8466
lclavicle -1.70955e-014 -2.38542e-014
lhumerus -42.4872 22.0843 67.4781
lradius 21.6952
lwrist -8.34045
lhand -14.215 26.896
lfingers 7.12502
lthumb 11.9218 56.5365
rfemur -19.4308 -9.06617 23.6058
rtibia 70.1708
rfoot -27.5664 14.1143
rtoes 6.09554
lfemur -9.40742 2.37291 -25.7206
ltibia -1.11319e-014
lfoot 30.8772 -1.2742
ltoes -20.5251
876
root -0.557854 22.9476 3.34009 -0.319736 -3.66229 -358.204
lowerback 6.41463 0.606729 3.5888
upperback 3.21465 1.04249 4.65386
thorax -0.300431 0.522359 2.71754
lowerneck -14.1817 1.34054 -9.29516
upperneck 41.3967 5.99302 -1.58422
head 17.5398 0.789365 2.03708
rclavicle 1.98785e-015 3.65764e-014
rhumerus -25.6882 -4.9701 -75.7864
rradius 41.8035
rwrist 16.376
rhand -20.2124 2.31669
rfingers 7.12502
rthumb 6.13473 -27.5745
lclavicle 1.98785e-015 3.65764e-014
lhumerus -42.3209 21.6312 67.9104
lradius 22.0993
lwrist -7.68177
lhand -14.2636 27.4922
lfingers 7.12502
lthumb 11.8749 57.1355
rfemur -19.7008 -9.10587 23.6866
rtibia 71.0737
rfoot -28.1488 14.0443
rtoes 5.10919
lfemur -9.19446 2.52838 -25.8237
ltibia -7.95139e-015
lfoot 30.6736 -1.7968
ltoes -20.4608
877
root -0.548903 22.8708 3.40227 -0.218715 -3.72547 -358.335
lowerback 6.28972 0.598016 3.60855
upperback 3.216 1.0236 4.6872
thorax -0.229374 0.513342 2.74369
lowerneck -14.1183 1.36125 -9.30887
upperneck 41.3684 6.00199 -1.55338
head 17.5033 0.797706 2.05286
rclavicle -1.11319e-014 -5.725e-014
rhumerus -25.8212 -4.95213 -75.8315
rradius 41.9614
rwrist 16.4673
rhand -20.2736 2.32989
rfingers 7.12502
rthumb 6.07565 -27.563
lclavicle -1.11319e-014 -5.725e-014
lhumerus -42.3723 21.2583 68.2007
lradius 22.5503
lwrist -7.26594
lhand -14.1794 27.5712
lfingers 7.12502
lthumb 11.9561 57.2097
rfemur -19.9706 -9.1648 23.7833
rtibia 72.0222
rfoot -28.5741 14.1071
rtoes 4.8028
lfemur -8.97372 2.67145 -25.8493
ltibia -1.59028e-015
lfoot 30.5239 -1.91671
ltoes -18.7708
878
root -0.540774 22.7961 3.46923 -0.0936911 -3.82066 -358.544
lowerback 6.13499 0.57951 3.68024
upperback 3.19155 0.993996 4.7485
thorax -0.167572 0.499166 2.77051
lowerneck -14.0582 1.39719 -9.336
upperneck 41.3428 6.04714 -1.54137
head 17.4687 0.81542 2.06865
rclavicle 3.97569e-015 3.18055e-014
rhumerus -26.0546 -4.76713 -75.8636
rradius 42.1733
rwrist 16.3873
rhand -20.1118 2.35145
rfingers 7.12502
rthumb 6.23186 -27.5369
lclavicle 3.97569e-015 3.18055e-014
lhumerus -42.5343 20.9906 68.3889
lradius 22.9653
lwrist -7.08143
lhand -14.1656 27.3684
lfingers 7.12502
lthumb 11.9694 57.0062
rfemur -20.2255 -9.19339 23.9411
rtibia 72.9907
rfoot -28.8347 14.4259
rtoes 4.88415
lfemur -8.71813 2.85268 -25.7692
ltibia -1.59028e-014
lfoot 30.242 -2.23639
ltoes -17.8358
879
root -0.533144 22.7229 3.53712 0.0253105 -3.88792 -358.608
lowerback 6.01929 0.593313 3.64009
upperback 3.13911 1.00553 4.74469
thorax -0.158436 0.504513 2.78903
lowerneck -13.9863 1.39411 -9.2688
upperneck 41.3663 6.03197 -1.59331
head 17.4696 0.811869 2.02909
rclavicle -5.1684e-015 -9.54166e-015
rhumerus -26.3685 -4.70365 -75.8627
rradius 42.3808
rwrist 16.343
rhand -19.9266 2.25989
rfingers 7.12502
rthumb 6.41065 -27.6231
lclavicle -5.1684e-015 -9.54166e-015
lhumerus -42.6244 20.6503 68.6017
lradius 23.3678
lwrist -6.79518
lhand -14.048 27.5984
lfingers 7.12502
lthumb 12.0828 57.2295
rfemur -20.4761 -9.29574 23.9076
rtibia 73.9894
rfoot -28.9583 14.6292
rtoes 3.33823
lfemur -8.46089 2.99812 -25.8716
ltibia 1.43125e-014
lfoot 29.7128 -2.96708
ltoes -18.1115
